<?xml version="1.0" encoding="UTF-8"?>
<svg id="camera" xmlns="http://www.w3.org/2000/svg" viewBox="0 0 400 400">
  <path d="M277.928,291.2v-62.156l68.015-30.189c6.612-2.935,14.057,1.906,14.057,9.14v104.255c0,7.234-7.445,12.075-14.057,9.14l-68.015-30.189Z" fill="none" stroke="#4f46e5" stroke-linecap="round" stroke-linejoin="round" stroke-width="12"/>
  <rect x="40" y="178.825" width="237.928" height="162.594" rx="14.747" ry="14.747" fill="none" stroke="#191919" stroke-linecap="round" stroke-linejoin="round" stroke-width="12"/>
  <g>
    <circle cx="218.287" cy="100.905" r="59.324" fill="none" stroke="#4f46e5" stroke-linecap="round" stroke-linejoin="round" stroke-width="12"/>
    <circle cx="218.287" cy="100.905" r="24.47" fill="none" stroke="#4f46e5" stroke-linecap="round" stroke-linejoin="round" stroke-width="12"/>
    <line x1="260.236" y1="58.957" x2="235.591" y2="83.602" fill="none" stroke="#4f46e5" stroke-linecap="round" stroke-linejoin="round" stroke-width="12"/>
    <line x1="200.984" y1="118.208" x2="176.339" y2="142.853" fill="none" stroke="#4f46e5" stroke-linecap="round" stroke-linejoin="round" stroke-width="12"/>
    <line x1="260.236" y1="142.853" x2="235.591" y2="118.208" fill="none" stroke="#4f46e5" stroke-linecap="round" stroke-linejoin="round" stroke-width="12"/>
    <line x1="200.984" y1="83.602" x2="176.339" y2="58.957" fill="none" stroke="#4f46e5" stroke-linecap="round" stroke-linejoin="round" stroke-width="12"/>
  </g>
  <g>
    <circle cx="92.729" cy="111.971" r="48.258" fill="none" stroke="#4f46e5" stroke-linecap="round" stroke-linejoin="round" stroke-width="12"/>
    <circle cx="92.729" cy="111.971" r="19.906" fill="none" stroke="#4f46e5" stroke-linecap="round" stroke-linejoin="round" stroke-width="12"/>
    <line x1="132.287" y1="84.33" x2="109.046" y2="100.569" fill="none" stroke="#4f46e5" stroke-linecap="round" stroke-linejoin="round" stroke-width="12"/>
    <line x1="76.411" y1="123.372" x2="53.17" y2="139.611" fill="none" stroke="#4f46e5" stroke-linecap="round" stroke-linejoin="round" stroke-width="12"/>
    <line x1="120.369" y1="151.529" x2="104.13" y2="128.288" fill="none" stroke="#4f46e5" stroke-linecap="round" stroke-linejoin="round" stroke-width="12"/>
    <line x1="81.327" y1="95.653" x2="65.088" y2="72.412" fill="none" stroke="#4f46e5" stroke-linecap="round" stroke-linejoin="round" stroke-width="12"/>
  </g>
</svg>